# xmcd CD database file
#
# Track frame offsets:
#	150
#	3205
#	28045
#	48233
#	72525
#	110138
#	139313
#	153580
#	179250
#	204150
#	214813
#	228635
#
# Disc length: 3191 seconds
#
# Revision: 0
# Processed by: cddbd v1.5PL3 Copyright (c) Steve Scherf et al.
# Submitted via: CDex 1.51
#
DISCID=ab0c750c
DTITLE=Kirche - Coloured Water
DYEAR=1995
DGENRE=Japanese Pop
TTITLE0=Coloured Water−泉−
TTITLE1=風の行彷
TTITLE2=Highland
TTITLE3=花降る森で
TTITLE4=架空庭園
TTITLE5=春の翼
TTITLE6=夕べの祈り−晩鐘−
TTITLE7=鬼さんこちら
TTITLE8=水の足音
TTITLE9=Coloured Water−雨−
TTITLE10=大陸
TTITLE11=Glass Moon
EXTD=YEAR: 1995
EXTT0=
EXTT1=
EXTT2=
EXTT3=
EXTT4=
EXTT5=
EXTT6=
EXTT7=
EXTT8=
EXTT9=
EXTT10=
EXTT11=
PLAYORDER=
